<svg xmlns="http://www.w3.org/2000/svg" viewBox="0 0 127.15857 48.60425"><path d="M126.93567,32.73181a1.76143,1.76143,0,0,1-2.37952.64l-11.05273-6.221V31.9184a1.77127,1.77127,0,0,1-3.54212,0V1.68579a1.77321,1.77321,0,0,1,3.54212,0v19.7096l11.05273-6.27912a1.7612,1.7612,0,0,1,2.37952.63916,1.71009,1.71009,0,0,1-.63556,2.32569L115.42566,24.244l10.87445,6.1629A1.72322,1.72322,0,0,1,126.93567,32.73181ZM84.54626,1.68579V31.9184a1.79949,1.79949,0,0,1-1.79815,1.74383,1.7466,1.7466,0,0,1-1.744-1.74383v-.40754a9.94168,9.94168,0,0,1-6.16968,2.15137A9.56134,9.56134,0,0,1,65.12262,24.244a9.5139,9.5139,0,0,1,9.71185-9.3609,9.94173,9.94173,0,0,1,6.16968,2.15136V1.68579A1.69785,1.69785,0,0,1,82.74811,0,1.75069,1.75069,0,0,1,84.54626,1.68579ZM81.00415,24.244a6.17313,6.17313,0,0,0-12.3316,0,6.1705,6.1705,0,0,0,12.3316,0Zm25.229.0581A9.35916,9.35916,0,1,1,96.87787,14.942,9.35265,9.35265,0,0,1,106.23315,24.30212Zm-3.4259,0a5.90231,5.90231,0,1,0-5.92938,5.92969A5.95475,5.95475,0,0,0,102.80725,24.30212Zm-40.70508,0a9.54527,9.54527,0,0,1-9.71026,9.36011A9.86592,9.86592,0,0,1,46.22766,31.569V46.85956a1.76251,1.76251,0,0,1-1.80212,1.74469,1.71338,1.71338,0,0,1-1.74469-1.74469V16.68585A1.71275,1.71275,0,0,1,44.42554,14.942a1.76188,1.76188,0,0,1,1.80212,1.74389v.34863A10.23149,10.23149,0,0,1,52.39191,14.942,9.54532,9.54532,0,0,1,62.10217,24.30212Zm-3.54681,0a6.16844,6.16844,0,0,0-12.3277,0,6.16847,6.16847,0,0,0,12.3277,0ZM32.56287,30.8717,17.61926,39.12714,2.55859,30.8717a1.33517,1.33517,0,0,0-.81384-.23242,1.75325,1.75325,0,0,0-1.51221.87158,1.66379,1.66379,0,0,0,.69837,2.26758l15.00177,8.25617v4.825a1.7382,1.7382,0,0,0,1.68658,1.74469h.05811a1.78848,1.78848,0,0,0,1.744-1.74469V42.09271l14.88629-8.31427a1.59812,1.59812,0,0,0,.6394-2.26758A1.76624,1.76624,0,0,0,32.56287,30.8717ZM17.61926,17.9649a1.76839,1.76839,0,0,0,1.86017-1.68579V1.68579A1.76792,1.76792,0,0,0,17.61926,0a1.76812,1.76812,0,0,0-1.861,1.68579V16.27911A1.76859,1.76859,0,0,0,17.61926,17.9649ZM.93091,25.69739l15.87372,9.18585a1.339,1.339,0,0,0,.81463.23242,1.64092,1.64092,0,0,0,.87195-.23242l15.81641-9.18585a1.76533,1.76533,0,0,0,.6394-2.38379,1.62512,1.62512,0,0,0-1.51141-.87238,1.58663,1.58663,0,0,0-.81458.23322L17.61926,31.33655,2.6167,22.67444a1.71492,1.71492,0,0,0-2.38416.63916A1.733,1.733,0,0,0,.93091,25.69739ZM34.30762,14.88312,21.10791,7.442v3.95336l8.89642,4.9419L17.61926,23.25549,5.2915,16.33722l8.89643-4.9419V7.50006L.93091,14.88312A1.77352,1.77352,0,0,0,0,16.33722a1.734,1.734,0,0,0,.87274,1.51147l15.87378,8.83722a1.33872,1.33872,0,0,0,.81458.23242,1.641,1.641,0,0,0,.872-.23242l15.87451-8.83722a1.73484,1.73484,0,0,0,.87195-1.51147A1.59975,1.59975,0,0,0,34.30762,14.88312Z" fill="#1a1e4f"/></svg>